<?xml version="1.0" encoding="UTF-8" standalone="no"?>
<svg
   xmlns:dc="http://purl.org/dc/elements/1.1/"
   xmlns:cc="http://creativecommons.org/ns#"
   xmlns:rdf="http://www.w3.org/1999/02/22-rdf-syntax-ns#"
   xmlns:svg="http://www.w3.org/2000/svg"
   xmlns="http://www.w3.org/2000/svg"
   xmlns:xlink="http://www.w3.org/1999/xlink"
   xmlns:sodipodi="http://sodipodi.sourceforge.net/DTD/sodipodi-0.dtd"
   xmlns:inkscape="http://www.inkscape.org/namespaces/inkscape"
   width="48"
   height="48"
   viewBox="0 0 48 48"
   id="svg2"
   version="1.1"
   inkscape:version="0.91 r13725"
   sodipodi:docname="marker.svg">
  <metadata
     id="metadata10">
    <rdf:RDF>
      <cc:Work
         rdf:about="">
        <dc:format>image/svg+xml</dc:format>
        <dc:type
           rdf:resource="http://purl.org/dc/dcmitype/StillImage" />
        <dc:title />
      </cc:Work>
    </rdf:RDF>
  </metadata>
  <defs
     id="defs8">
    <radialGradient
       inkscape:collect="always"
       xlink:href="#linearGradient3913"
       id="radialGradient3883"
       gradientUnits="userSpaceOnUse"
       gradientTransform="matrix(0.2039074,-0.09024614,0.07170697,0.16216229,-92.579229,-90.973095)"
       cx="262.33273"
       cy="945.23846"
       fx="262.33273"
       fy="945.23846"
       r="185.49754" />
    <linearGradient
       inkscape:collect="always"
       id="linearGradient3913">
      <stop
         style="stop-color:#ffffff;stop-opacity:1;"
         offset="0"
         id="stop3915" />
      <stop
         style="stop-color:#ffffff;stop-opacity:0;"
         offset="1"
         id="stop3917" />
    </linearGradient>
    <clipPath
       clipPathUnits="userSpaceOnUse"
       id="clipPath4167">
      <path
         inkscape:connector-curvature="0"
         d="M 24,4.0000001 C 16.27,4.0000001 10,10.27 10,18 10,28.5 24,44 24,44 24,44 38,28.5 38,18 38,10.27 31.73,4.0000001 24,4.0000001 Z M 24,23 c -2.76,0 -5,-2.24 -5,-5 0,-2.76 2.24,-5 5,-5 2.76,0 5,2.24 5,5 0,2.76 -2.24,5 -5,5 z"
         id="path4169"
         style="fill:#000000;fill-opacity:1" />
    </clipPath>
    <clipPath
       clipPathUnits="userSpaceOnUse"
       id="clipPath4321">
      <path
         inkscape:connector-curvature="0"
         d="m 24,4.0001492 c -7.73,0 -14,6.2699998 -14,14.0000008 0,10.5 14,26 14,26 0,0 14,-15.5 14,-26 C 38,10.270149 31.73,4.0001492 24,4.0001492 Z M 24,23.00015 c -2.76,0 -5,-2.24 -5,-5 0,-2.760001 2.24,-5.000001 5,-5.000001 2.76,0 5,2.24 5,5.000001 0,2.76 -2.24,5 -5,5 z"
         id="path4323"
         style="fill:#000000;fill-opacity:1;stroke:#ffffff;stroke-width:3;stroke-miterlimit:4;stroke-dasharray:18, 3;stroke-dashoffset:0;stroke-opacity:0.53333285" />
    </clipPath>
  </defs>
  <sodipodi:namedview
     pagecolor="#ffffff"
     bordercolor="#666666"
     borderopacity="1"
     objecttolerance="10"
     gridtolerance="10"
     guidetolerance="10"
     inkscape:pageopacity="0"
     inkscape:pageshadow="2"
     inkscape:window-width="1920"
     inkscape:window-height="1010"
     id="namedview6"
     showgrid="false"
     inkscape:zoom="4.9166667"
     inkscape:cx="-15.254237"
     inkscape:cy="12.20339"
     inkscape:window-x="0"
     inkscape:window-y="41"
     inkscape:window-maximized="1"
     inkscape:current-layer="svg2" />
  <path
     d="M24 4c-7.73 0-14 6.27-14 14 0 10.5 14 26 14 26s14-15.5 14-26c0-7.73-6.27-14-14-14zm0 19c-2.76 0-5-2.24-5-5s2.24-5 5-5 5 2.24 5 5-2.24 5-5 5z"
     id="path4"
     style="fill:#00a000;fill-opacity:1;stroke:none;stroke-opacity:0.53333336;stroke-width:1.70000002;stroke-miterlimit:4;stroke-dasharray:none" />
  <path
     style="display:inline;opacity:0.19211821;fill:url(#radialGradient3883);fill-opacity:1;stroke:none"
     d="m 53.884912,1.7373006 c -18.322492,0 -33.173092,14.5823714 -33.173092,32.5686504 0,3.794038 0.661899,7.436601 1.877335,10.821463 1.505391,0.209531 3.044508,0.317391 4.607513,0.317391 5.584539,0 9.890238,-1.147853 14.805425,-2.934259 l 15.611481,6.295152 a 2.0568126,2.0577227 0 0 0 2.766588,-2.403594 l -4.227888,-17.09591 c 2.717518,-4.771967 3.645449,-10.205846 3.645449,-15.810885 0,-4.0761111 -0.781533,-7.9714274 -2.20495,-11.5551094 -1.217366,-0.132888 -2.454715,-0.202899 -3.707861,-0.202899 z"
     id="path3878"
     inkscape:connector-curvature="0"
     clip-path="url(#clipPath4167)" />
  <path
     inkscape:connector-curvature="0"
     d="M 24,4.0000003 C 16.27,4.0000003 10,10.27 10,18 10,28.5 24,44 24,44 24,44 38,28.5 38,18 38,10.27 31.73,4.0000003 24,4.0000003 Z M 24,23 c -2.76,0 -5,-2.24 -5,-5 0,-2.76 2.24,-5 5,-5 2.76,0 5,2.24 5,5 0,2.76 -2.24,5 -5,5 z"
     id="path4-3"
     style="fill:none;fill-opacity:1;stroke:#ffffff;stroke-width:5;stroke-miterlimit:4;stroke-dasharray:30,5;stroke-opacity:0.53333336;stroke-dashoffset:44"
     clip-path="url(#clipPath4321)" />
</svg>
