<?xml version="1.0" encoding="UTF-8" standalone="no"?>
<!-- Created with Inkscape (http://www.inkscape.org/) -->

<svg
   xmlns:dc="http://purl.org/dc/elements/1.1/"
   xmlns:cc="http://creativecommons.org/ns#"
   xmlns:rdf="http://www.w3.org/1999/02/22-rdf-syntax-ns#"
   xmlns:svg="http://www.w3.org/2000/svg"
   xmlns="http://www.w3.org/2000/svg"
   xmlns:sodipodi="http://sodipodi.sourceforge.net/DTD/sodipodi-0.dtd"
   xmlns:inkscape="http://www.inkscape.org/namespaces/inkscape"
   width="56.24334mm"
   height="56.24334mm"
   viewBox="0 0 56.24334 56.243339"
   version="1.1"
   id="svg14750"
   inkscape:version="0.92.2 2405546, 2018-03-11"
   sodipodi:docname="quicksy.svg"
   inkscape:export-filename="/home/daniel/quicksy.png"
   inkscape:export-xdpi="231.22382"
   inkscape:export-ydpi="231.22382">
  <defs
     id="defs14744">
    <clipPath
       clipPathUnits="userSpaceOnUse"
       id="clipPath6910-2">
      <path
         inkscape:connector-curvature="0"
         id="path6912-1"
         d="M 99.88867,-2.3837657e-4 A 95.889392,95.889392 0 0 0 4,95.888436 95.889392,95.889392 0 0 0 99.88867,191.77906 95.889392,95.889392 0 0 0 142.59375,181.70093 l 0.12695,0.0137 40.79297,15.83204 c 3.25479,1.26313 7.53628,3.04697 10.45508,0.27343 2.83326,-2.69222 2.16811,-5.42213 1.1875,-9.41211 l -11.34766,-46.16797 a 95.889392,95.889392 0 0 1 -0.002,0.002 v -0.008 l 0.002,0.006 A 95.889392,95.889392 0 0 0 195.7793,95.888466 95.889392,95.889392 0 0 0 99.88867,-2.0837657e-4 Z"
         style="display:inline;opacity:1;fill:#00a000;fill-opacity:1;fill-rule:evenodd;stroke:none;stroke-width:4;stroke-linecap:round;stroke-linejoin:round;stroke-miterlimit:4;stroke-dasharray:none;stroke-dashoffset:0;stroke-opacity:1" />
    </clipPath>
    <clipPath
       clipPathUnits="userSpaceOnUse"
       id="clipPath6906-8">
      <path
         inkscape:connector-curvature="0"
         id="path6908-0"
         d="M 99.88867,-2.3837657e-4 A 95.889392,95.889392 0 0 0 4,95.888436 95.889392,95.889392 0 0 0 99.88867,191.77906 95.889392,95.889392 0 0 0 142.59375,181.70093 l 0.12695,0.0137 40.79297,15.83204 c 3.25479,1.26313 7.53628,3.04697 10.45508,0.27343 2.83326,-2.69222 2.16811,-5.42213 1.1875,-9.41211 l -11.34766,-46.16797 a 95.889392,95.889392 0 0 1 -0.002,0.002 v -0.008 l 0.002,0.006 A 95.889392,95.889392 0 0 0 195.7793,95.888466 95.889392,95.889392 0 0 0 99.88867,-2.0837657e-4 Z"
         style="display:inline;opacity:1;fill:#00a000;fill-opacity:1;fill-rule:evenodd;stroke:none;stroke-width:4;stroke-linecap:round;stroke-linejoin:round;stroke-miterlimit:4;stroke-dasharray:none;stroke-dashoffset:0;stroke-opacity:1" />
    </clipPath>
    <clipPath
       clipPathUnits="userSpaceOnUse"
       id="clipPath6902-3">
      <path
         inkscape:connector-curvature="0"
         id="path6904-6"
         d="M 99.88867,-2.3837657e-4 A 95.889392,95.889392 0 0 0 4,95.888436 95.889392,95.889392 0 0 0 99.88867,191.77906 95.889392,95.889392 0 0 0 142.59375,181.70093 l 0.12695,0.0137 40.79297,15.83204 c 3.25479,1.26313 7.53628,3.04697 10.45508,0.27343 2.83326,-2.69222 2.16811,-5.42213 1.1875,-9.41211 l -11.34766,-46.16797 a 95.889392,95.889392 0 0 1 -0.002,0.002 v -0.008 l 0.002,0.006 A 95.889392,95.889392 0 0 0 195.7793,95.888466 95.889392,95.889392 0 0 0 99.88867,-2.0837657e-4 Z"
         style="display:inline;opacity:1;fill:#00a000;fill-opacity:1;fill-rule:evenodd;stroke:none;stroke-width:4;stroke-linecap:round;stroke-linejoin:round;stroke-miterlimit:4;stroke-dasharray:none;stroke-dashoffset:0;stroke-opacity:1" />
    </clipPath>
    <clipPath
       clipPathUnits="userSpaceOnUse"
       id="clipPath6898-8">
      <path
         inkscape:connector-curvature="0"
         id="path6900-9"
         d="M 99.88867,-2.3837657e-4 A 95.889392,95.889392 0 0 0 4,95.888436 95.889392,95.889392 0 0 0 99.88867,191.77906 95.889392,95.889392 0 0 0 142.59375,181.70093 l 0.12695,0.0137 40.79297,15.83204 c 3.25479,1.26313 7.53628,3.04697 10.45508,0.27343 2.83326,-2.69222 2.16811,-5.42213 1.1875,-9.41211 l -11.34766,-46.16797 a 95.889392,95.889392 0 0 1 -0.002,0.002 v -0.008 l 0.002,0.006 A 95.889392,95.889392 0 0 0 195.7793,95.888466 95.889392,95.889392 0 0 0 99.88867,-2.0837657e-4 Z"
         style="display:inline;opacity:1;fill:#00a000;fill-opacity:1;fill-rule:evenodd;stroke:none;stroke-width:4;stroke-linecap:round;stroke-linejoin:round;stroke-miterlimit:4;stroke-dasharray:none;stroke-dashoffset:0;stroke-opacity:1" />
    </clipPath>
    <clipPath
       clipPathUnits="userSpaceOnUse"
       id="clipPath6894-1">
      <path
         inkscape:connector-curvature="0"
         id="path6896-2"
         d="M 99.88867,-2.3837657e-4 A 95.889392,95.889392 0 0 0 4,95.888436 95.889392,95.889392 0 0 0 99.88867,191.77906 95.889392,95.889392 0 0 0 142.59375,181.70093 l 0.12695,0.0137 40.79297,15.83204 c 3.25479,1.26313 7.53628,3.04697 10.45508,0.27343 2.83326,-2.69222 2.16811,-5.42213 1.1875,-9.41211 l -11.34766,-46.16797 a 95.889392,95.889392 0 0 1 -0.002,0.002 v -0.008 l 0.002,0.006 A 95.889392,95.889392 0 0 0 195.7793,95.888466 95.889392,95.889392 0 0 0 99.88867,-2.0837657e-4 Z"
         style="display:inline;opacity:1;fill:#00a000;fill-opacity:1;fill-rule:evenodd;stroke:none;stroke-width:4;stroke-linecap:round;stroke-linejoin:round;stroke-miterlimit:4;stroke-dasharray:none;stroke-dashoffset:0;stroke-opacity:1" />
    </clipPath>
    <clipPath
       clipPathUnits="userSpaceOnUse"
       id="clipPath6886-7">
      <path
         inkscape:connector-curvature="0"
         id="path6888-5"
         d="M 99.88867,-2.3837657e-4 A 95.889392,95.889392 0 0 0 4,95.888436 95.889392,95.889392 0 0 0 99.88867,191.77906 95.889392,95.889392 0 0 0 142.59375,181.70093 l 0.12695,0.0137 40.79297,15.83204 c 3.25479,1.26313 7.53628,3.04697 10.45508,0.27343 2.83326,-2.69222 2.16811,-5.42213 1.1875,-9.41211 l -11.34766,-46.16797 a 95.889392,95.889392 0 0 1 -0.002,0.002 v -0.008 l 0.002,0.006 A 95.889392,95.889392 0 0 0 195.7793,95.888466 95.889392,95.889392 0 0 0 99.88867,-2.0837657e-4 Z"
         style="display:inline;opacity:1;fill:#00a000;fill-opacity:1;fill-rule:evenodd;stroke:none;stroke-width:4;stroke-linecap:round;stroke-linejoin:round;stroke-miterlimit:4;stroke-dasharray:none;stroke-dashoffset:0;stroke-opacity:1" />
    </clipPath>
    <clipPath
       clipPathUnits="userSpaceOnUse"
       id="clipPath6882-4">
      <path
         inkscape:connector-curvature="0"
         id="path6884-7"
         d="M 99.88867,-2.3837657e-4 A 95.889392,95.889392 0 0 0 4,95.888436 95.889392,95.889392 0 0 0 99.88867,191.77906 95.889392,95.889392 0 0 0 142.59375,181.70093 l 0.12695,0.0137 40.79297,15.83204 c 3.25479,1.26313 7.53628,3.04697 10.45508,0.27343 2.83326,-2.69222 2.16811,-5.42213 1.1875,-9.41211 l -11.34766,-46.16797 a 95.889392,95.889392 0 0 1 -0.002,0.002 v -0.008 l 0.002,0.006 A 95.889392,95.889392 0 0 0 195.7793,95.888466 95.889392,95.889392 0 0 0 99.88867,-2.0837657e-4 Z"
         style="display:inline;opacity:1;fill:#00a000;fill-opacity:1;fill-rule:evenodd;stroke:none;stroke-width:4;stroke-linecap:round;stroke-linejoin:round;stroke-miterlimit:4;stroke-dasharray:none;stroke-dashoffset:0;stroke-opacity:1" />
    </clipPath>
    <clipPath
       clipPathUnits="userSpaceOnUse"
       id="clipPath6890-4">
      <path
         inkscape:connector-curvature="0"
         id="path6892-8"
         d="M 99.88867,-2.3837657e-4 A 95.889392,95.889392 0 0 0 4,95.888436 95.889392,95.889392 0 0 0 99.88867,191.77906 95.889392,95.889392 0 0 0 142.59375,181.70093 l 0.12695,0.0137 40.79297,15.83204 c 3.25479,1.26313 7.53628,3.04697 10.45508,0.27343 2.83326,-2.69222 2.16811,-5.42213 1.1875,-9.41211 l -11.34766,-46.16797 a 95.889392,95.889392 0 0 1 -0.002,0.002 v -0.008 l 0.002,0.006 A 95.889392,95.889392 0 0 0 195.7793,95.888466 95.889392,95.889392 0 0 0 99.88867,-2.0837657e-4 Z"
         style="display:inline;opacity:1;fill:#00a000;fill-opacity:1;fill-rule:evenodd;stroke:none;stroke-width:4;stroke-linecap:round;stroke-linejoin:round;stroke-miterlimit:4;stroke-dasharray:none;stroke-dashoffset:0;stroke-opacity:1" />
    </clipPath>
  </defs>
  <sodipodi:namedview
     id="base"
     pagecolor="#ffffff"
     bordercolor="#666666"
     borderopacity="1.0"
     inkscape:pageopacity="0.0"
     inkscape:pageshadow="2"
     inkscape:zoom="2.8"
     inkscape:cx="-104.30661"
     inkscape:cy="87.246329"
     inkscape:document-units="mm"
     inkscape:current-layer="layer1"
     showgrid="false"
     fit-margin-top="0"
     fit-margin-left="0"
     fit-margin-right="0"
     fit-margin-bottom="0"
     inkscape:window-width="1916"
     inkscape:window-height="504"
     inkscape:window-x="1920"
     inkscape:window-y="1072"
     inkscape:window-maximized="0"
     units="mm" />
  <metadata
     id="metadata14747">
    <rdf:RDF>
      <cc:Work
         rdf:about="">
        <dc:format>image/svg+xml</dc:format>
        <dc:type
           rdf:resource="http://purl.org/dc/dcmitype/StillImage" />
        <dc:title />
      </cc:Work>
    </rdf:RDF>
  </metadata>
  <g
     inkscape:label="Layer 1"
     inkscape:groupmode="layer"
     id="layer1"
     transform="translate(-69.668634,-48.140243)">
    <g
       style="display:inline"
       id="g14606"
       transform="matrix(0.28222223,0,0,0.28222223,-477.88455,-301.93764)">
      <path
         inkscape:connector-curvature="0"
         id="path3415"
         d="m 2039.9944,1240.4334 a 95.889395,95.889395 0 0 0 -95.8886,95.8887 95.889395,95.889395 0 0 0 95.8886,95.8906 95.889395,95.889395 0 0 0 42.7051,-10.0781 l 0.127,0.014 40.7929,15.832 c 3.2548,1.2632 7.5363,3.047 10.4551,0.2735 2.8333,-2.6923 2.1681,-5.4222 1.1875,-9.4121 l -11.3476,-46.168 v -0.01 0.01 a 95.889395,95.889395 0 0 0 11.9707,-46.3516 95.889395,95.889395 0 0 0 -95.8907,-95.8886 z"
         style="display:inline;opacity:1;fill:#00a000;fill-opacity:1;fill-rule:evenodd;stroke:none;stroke-width:4.00000048;stroke-linecap:round;stroke-linejoin:round;stroke-miterlimit:4;stroke-dasharray:none;stroke-dashoffset:0;stroke-opacity:1" />
      <path
         transform="translate(1940.1058,1240.4337)"
         sodipodi:nodetypes="csccscc"
         inkscape:connector-curvature="0"
         id="path3417"
         d="m 145.16406,11.183594 -5.13232,9.649402 c -0.77924,1.465076 -0.65974,2.41396 0.66876,3.18097 9.66686,5.488467 18.12303,12.874168 24.86104,21.711122 1.05534,1.616079 2.08054,1.713076 3.67763,0.571565 L 178.04883,40 C 169.45271,27.990203 158.19857,18.128379 145.16406,11.183594 Z"
         clip-path="url(#clipPath6910-2)"
         style="display:inline;opacity:1;fill:#80d080;fill-opacity:1;fill-rule:evenodd;stroke:none;stroke-width:1px;stroke-linecap:butt;stroke-linejoin:miter;stroke-opacity:1" />
      <path
         transform="translate(1940.1058,1240.4337)"
         sodipodi:nodetypes="csccccccc"
         inkscape:connector-curvature="0"
         id="path3419"
         d="m 193.80469,75.615234 -9.62713,2.062751 c -2.66266,0.570512 -3.40763,1.172953 -2.90593,3.917433 0.85823,4.714633 1.30424,9.497137 1.33189,14.293254 -0.028,5.578758 -0.62194,11.137108 -1.77093,16.589918 -0.86591,3.23162 0.13682,3.77092 3.16149,4.58138 l 8.98639,2.30136 c 1.98177,-7.66828 3.00584,-15.55255 3.04883,-23.472658 -0.0187,-6.817681 -0.76446,-13.613926 -2.22461,-20.273438 z"
         clip-path="url(#clipPath6906-8)"
         style="display:inline;opacity:1;fill:#80d080;fill-opacity:1;fill-rule:evenodd;stroke:none;stroke-width:1px;stroke-linecap:butt;stroke-linejoin:miter;stroke-opacity:1" />
      <path
         transform="translate(1940.1058,1240.4337)"
         sodipodi:nodetypes="sccsccs"
         inkscape:connector-curvature="0"
         id="path3421"
         d="m 14.264281,102.76512 -10.2076406,0.87943 c 1.2093798,14.83154 5.8540346,29.17808 13.5664056,41.90429 l 8.544301,-5.23239 c 2.394983,-1.46665 1.895406,-3.37834 0.986202,-5.04513 -5.118253,-9.40257 -8.359018,-19.71635 -9.536202,-30.36553 0,-2.09418 -1.881577,-2.26744 -3.353066,-2.14067 z"
         clip-path="url(#clipPath6902-3)"
         style="display:inline;opacity:1;fill:#80d080;fill-opacity:1;fill-rule:evenodd;stroke:none;stroke-width:1px;stroke-linecap:butt;stroke-linejoin:miter;stroke-opacity:1" />
      <path
         transform="translate(1940.1058,1240.4337)"
         sodipodi:nodetypes="sccsccs"
         inkscape:connector-curvature="0"
         id="path3423"
         d="m 51.504371,166.60235 -5.82273,8.50898 c 12.710503,8.71282 27.333669,14.23394 42.630859,16.0957 l 1.220329,-9.90843 c 0.355066,-2.88295 -1.085712,-3.52946 -3.332252,-3.90256 -10.402329,-1.73697 -20.373956,-5.45322 -29.373754,-10.94516 -1.647505,-1.06744 -3.639993,-2.30718 -5.322452,0.15147 z"
         clip-path="url(#clipPath6898-8)"
         style="display:inline;opacity:1;fill:#80d080;fill-opacity:1;fill-rule:evenodd;stroke:none;stroke-width:1px;stroke-linecap:butt;stroke-linejoin:miter;stroke-opacity:1" />
      <path
         transform="translate(1940.1058,1240.4337)"
         sodipodi:nodetypes="ccsccsc"
         inkscape:connector-curvature="0"
         id="path3425"
         d="M 32.208984,27.683594 C 21.779177,38.079001 13.883707,50.736882 9.1347656,64.675781 L 19.33617,68.090365 c 1.658147,0.55501 2.832564,-0.120955 3.374272,-1.591979 3.777598,-10.021698 9.470788,-19.210103 16.759132,-27.052307 1.561136,-1.561136 1.567283,-2.960058 0.447507,-4.076606 z"
         clip-path="url(#clipPath6894-1)"
         style="display:inline;opacity:1;fill:#80d080;fill-opacity:1;fill-rule:evenodd;stroke:none;stroke-width:1px;stroke-linecap:butt;stroke-linejoin:miter;stroke-opacity:1" />
      <path
         transform="translate(1940.1058,1240.4337)"
         sodipodi:nodetypes="cssccccsssc"
         inkscape:connector-curvature="0"
         id="path3427"
         d="m 138.72416,168.48439 c -4.17634,2.25458 -8.55959,4.09055 -13.0504,5.63418 -1.00363,0.34498 -1.20742,1.18222 -0.8682,2.27372 l 3.44056,11.0706 c 4.92985,-1.53124 9.72799,-3.45808 14.34766,-5.76172 l 0.12695,0.0137 14.0293,5.44532 4.12174,-10.20577 c 0.7548,-1.86894 -0.0184,-2.7016 -1.59462,-3.31324 l -14.72114,-5.71251 c -1.86679,-0.7244 -3.68834,-0.60144 -5.83185,0.55572 z"
         clip-path="url(#clipPath6886-7)"
         style="display:inline;fill:#80d080;fill-opacity:1;fill-rule:evenodd;stroke:none;stroke-width:1px;stroke-linecap:butt;stroke-linejoin:miter;stroke-opacity:1" />
      <path
         transform="translate(1940.1058,1240.4337)"
         sodipodi:nodetypes="cssccc"
         inkscape:connector-curvature="0"
         id="path3429"
         d="m 186.53125,152.80469 -10.6386,2.70888 c -0.78879,0.20085 -1.67397,1.02386 -1.35494,2.33801 l 9.75918,40.15428 c 8.56713,5.97538 15.30408,3.06731 11.01563,-9.47266 z"
         clip-path="url(#clipPath6882-4)"
         style="display:inline;fill:#80d080;fill-opacity:1;fill-rule:evenodd;stroke:none;stroke-width:1px;stroke-linecap:butt;stroke-linejoin:miter;stroke-opacity:1" />
      <circle
         r="10.470775"
         style="opacity:1;fill:#f5f5f5;fill-opacity:1;fill-rule:evenodd;stroke:none;stroke-width:0.38355759"
         id="circle3431"
         cx="2041.2632"
         cy="1331.7938" />
      <circle
         r="10.470775"
         style="opacity:1;fill:#f5f5f5;fill-opacity:1;fill-rule:evenodd;stroke:none;stroke-width:0.38355759"
         id="circle3433"
         cx="2087.3342"
         cy="1331.7938" />
      <path
         id="path3435"
         d="m 2051.6642,1331.8339 a 10.470775,10.470775 0 0 1 -10.4708,10.4708 10.470775,10.470775 0 0 1 -10.4708,-10.4708 10.470775,10.470775 0 0 1 10.4708,-10.4707 10.470775,10.470775 0 0 1 10.4708,10.4707 z"
         style="opacity:1;fill:#ffffff;fill-opacity:1;fill-rule:evenodd;stroke:none;stroke-width:0.38355759"
         inkscape:connector-curvature="0" />
      <path
         sodipodi:nodetypes="cczc"
         inkscape:connector-curvature="0"
         style="opacity:1;fill:#ffffff;fill-opacity:1;fill-rule:evenodd;stroke:none;stroke-width:0.38355768"
         d="m 2074.7172,1383.7461 c -15.8797,12.0914 -43.2556,14.948 -67.5659,-1.6895 27.0396,19.0303 0.8971,-35.2887 34.0999,-35.0406 33.2028,0.2482 5.5198,57.4893 33.466,36.7301 z"
         id="path3437" />
      <path
         inkscape:connector-curvature="0"
         style="opacity:1;fill:#ffffff;fill-opacity:1;fill-rule:evenodd;stroke:none;stroke-width:0.38355759"
         d="m 2097.6945,1331.834 a 10.470775,10.470775 0 0 1 -10.4708,10.4707 10.470775,10.470775 0 0 1 -10.4708,-10.4707 10.470775,10.470775 0 0 1 10.4708,-10.4708 10.470775,10.470775 0 0 1 10.4708,10.4708 z"
         id="path3439" />
      <path
         id="path3441"
         d="m 2109.4287,1358.1944 c -11.5384,-0.2986 -27.64,38.1534 -27.0507,3.8825 0,-9.3535 6.3899,-16.936 14.272,-16.936 4.597,0 13.2011,1.7994 12.7787,13.0535 z"
         style="opacity:1;fill:#ffffff;fill-opacity:1;fill-rule:evenodd;stroke:none;stroke-width:0.38355762"
         inkscape:connector-curvature="0"
         sodipodi:nodetypes="ccsc" />
      <path
         id="path3443"
         d="m 1984.8779,1331.834 a 10.470775,10.470775 0 0 0 10.4708,10.4707 10.470775,10.470775 0 0 0 10.4708,-10.4707 10.470775,10.470775 0 0 0 -10.4708,-10.4708 10.470775,10.470775 0 0 0 -10.4708,10.4708 z"
         style="opacity:1;fill:#ffffff;fill-opacity:1;fill-rule:evenodd;stroke:none;stroke-width:0.38355759"
         inkscape:connector-curvature="0" />
      <path
         sodipodi:nodetypes="ccsc"
         inkscape:connector-curvature="0"
         style="opacity:1;fill:#ffffff;fill-opacity:1;fill-rule:evenodd;stroke:none;stroke-width:0.38355762"
         d="m 1971.0018,1355.3574 c 15.2031,1.4783 27.0563,38.8786 29.1926,6.7197 0,-9.3537 -6.1191,-16.9362 -13.6673,-16.9362 -7.5483,0 -11.0905,1.2852 -15.5253,10.2165 z"
         id="path3445" />
      <path
         transform="translate(1939.7548,1240.4502)"
         sodipodi:nodetypes="ccsccscc"
         inkscape:connector-curvature="0"
         id="path3447"
         d="M 99.888672,-0.25 C 87.701045,-0.2239408 75.630114,2.1252837 64.322266,6.671875 l 3.530435,8.74898 c 1.063314,2.635062 1.616754,3.526314 4.973913,2.352259 8.692057,-3.031338 17.839027,-4.588849 27.062058,-4.599286 5.555828,0 6.486278,0.350026 6.780788,-3.4460223 l 0.74851,-9.64772758 C 104.9135,-0.12857239 102.40179,-0.23868346 99.888672,-0.25 Z"
         clip-path="url(#clipPath6890-4)"
         style="display:inline;opacity:1;fill:#80d080;fill-opacity:1;fill-rule:evenodd;stroke:none;stroke-width:1px;stroke-linecap:butt;stroke-linejoin:miter;stroke-opacity:1" />
    </g>
  </g>
</svg>
