<?xml version="1.0" encoding="UTF-8" standalone="no"?>
<!-- Created with Inkscape (http://www.inkscape.org/) -->

<svg
   xmlns:dc="http://purl.org/dc/elements/1.1/"
   xmlns:cc="http://creativecommons.org/ns#"
   xmlns:rdf="http://www.w3.org/1999/02/22-rdf-syntax-ns#"
   xmlns:svg="http://www.w3.org/2000/svg"
   xmlns="http://www.w3.org/2000/svg"
   xmlns:sodipodi="http://sodipodi.sourceforge.net/DTD/sodipodi-0.dtd"
   xmlns:inkscape="http://www.inkscape.org/namespaces/inkscape"
   width="21.637424mm"
   height="21.637424mm"
   viewBox="0 0 21.637424 21.637426"
   version="1.1"
   id="svg14750"
   inkscape:version="0.92.2 2405546, 2018-03-11"
   sodipodi:docname="quicksy_mono.svg"
   inkscape:export-filename="/home/smagnan/Work/osp/osp.cloud/osp.work.quicksy/package-quicksy/quicksy-adaptative.png"
   inkscape:export-xdpi="175"
   inkscape:export-ydpi="175">
  <defs
     id="defs14744">
    <inkscape:path-effect
       effect="spiro"
       id="path-effect963"
       is_visible="true" />
    <inkscape:path-effect
       effect="spiro"
       id="path-effect937"
       is_visible="true" />
    <inkscape:path-effect
       effect="spiro"
       id="path-effect893"
       is_visible="true" />
    <inkscape:path-effect
       is_visible="true"
       id="path-effect998"
       effect="spiro" />
    <inkscape:path-effect
       is_visible="true"
       id="path-effect890"
       effect="spiro" />
    <inkscape:path-effect
       effect="spiro"
       id="path-effect852"
       is_visible="true" />
    <clipPath
       clipPathUnits="userSpaceOnUse"
       id="clipPath6910-2">
      <path
         inkscape:connector-curvature="0"
         id="path6912-1"
         d="M 99.88867,-2.3837657e-4 A 95.889392,95.889392 0 0 0 4,95.888436 95.889392,95.889392 0 0 0 99.88867,191.77906 95.889392,95.889392 0 0 0 142.59375,181.70093 l 0.12695,0.0137 40.79297,15.83204 c 3.25479,1.26313 7.53628,3.04697 10.45508,0.27343 2.83326,-2.69222 2.16811,-5.42213 1.1875,-9.41211 l -11.34766,-46.16797 a 95.889392,95.889392 0 0 1 -0.002,0.002 v -0.008 l 0.002,0.006 A 95.889392,95.889392 0 0 0 195.7793,95.888466 95.889392,95.889392 0 0 0 99.88867,-2.0837657e-4 Z"
         style="display:inline;opacity:1;fill:#00a000;fill-opacity:1;fill-rule:evenodd;stroke:none;stroke-width:4;stroke-linecap:round;stroke-linejoin:round;stroke-miterlimit:4;stroke-dasharray:none;stroke-dashoffset:0;stroke-opacity:1" />
    </clipPath>
    <clipPath
       clipPathUnits="userSpaceOnUse"
       id="clipPath6906-8">
      <path
         inkscape:connector-curvature="0"
         id="path6908-0"
         d="M 99.88867,-2.3837657e-4 A 95.889392,95.889392 0 0 0 4,95.888436 95.889392,95.889392 0 0 0 99.88867,191.77906 95.889392,95.889392 0 0 0 142.59375,181.70093 l 0.12695,0.0137 40.79297,15.83204 c 3.25479,1.26313 7.53628,3.04697 10.45508,0.27343 2.83326,-2.69222 2.16811,-5.42213 1.1875,-9.41211 l -11.34766,-46.16797 a 95.889392,95.889392 0 0 1 -0.002,0.002 v -0.008 l 0.002,0.006 A 95.889392,95.889392 0 0 0 195.7793,95.888466 95.889392,95.889392 0 0 0 99.88867,-2.0837657e-4 Z"
         style="display:inline;opacity:1;fill:#00a000;fill-opacity:1;fill-rule:evenodd;stroke:none;stroke-width:4;stroke-linecap:round;stroke-linejoin:round;stroke-miterlimit:4;stroke-dasharray:none;stroke-dashoffset:0;stroke-opacity:1" />
    </clipPath>
    <clipPath
       clipPathUnits="userSpaceOnUse"
       id="clipPath6902-3">
      <path
         inkscape:connector-curvature="0"
         id="path6904-6"
         d="M 99.88867,-2.3837657e-4 A 95.889392,95.889392 0 0 0 4,95.888436 95.889392,95.889392 0 0 0 99.88867,191.77906 95.889392,95.889392 0 0 0 142.59375,181.70093 l 0.12695,0.0137 40.79297,15.83204 c 3.25479,1.26313 7.53628,3.04697 10.45508,0.27343 2.83326,-2.69222 2.16811,-5.42213 1.1875,-9.41211 l -11.34766,-46.16797 a 95.889392,95.889392 0 0 1 -0.002,0.002 v -0.008 l 0.002,0.006 A 95.889392,95.889392 0 0 0 195.7793,95.888466 95.889392,95.889392 0 0 0 99.88867,-2.0837657e-4 Z"
         style="display:inline;opacity:1;fill:#00a000;fill-opacity:1;fill-rule:evenodd;stroke:none;stroke-width:4;stroke-linecap:round;stroke-linejoin:round;stroke-miterlimit:4;stroke-dasharray:none;stroke-dashoffset:0;stroke-opacity:1" />
    </clipPath>
    <clipPath
       clipPathUnits="userSpaceOnUse"
       id="clipPath6898-8">
      <path
         inkscape:connector-curvature="0"
         id="path6900-9"
         d="M 99.88867,-2.3837657e-4 A 95.889392,95.889392 0 0 0 4,95.888436 95.889392,95.889392 0 0 0 99.88867,191.77906 95.889392,95.889392 0 0 0 142.59375,181.70093 l 0.12695,0.0137 40.79297,15.83204 c 3.25479,1.26313 7.53628,3.04697 10.45508,0.27343 2.83326,-2.69222 2.16811,-5.42213 1.1875,-9.41211 l -11.34766,-46.16797 a 95.889392,95.889392 0 0 1 -0.002,0.002 v -0.008 l 0.002,0.006 A 95.889392,95.889392 0 0 0 195.7793,95.888466 95.889392,95.889392 0 0 0 99.88867,-2.0837657e-4 Z"
         style="display:inline;opacity:1;fill:#00a000;fill-opacity:1;fill-rule:evenodd;stroke:none;stroke-width:4;stroke-linecap:round;stroke-linejoin:round;stroke-miterlimit:4;stroke-dasharray:none;stroke-dashoffset:0;stroke-opacity:1" />
    </clipPath>
    <clipPath
       clipPathUnits="userSpaceOnUse"
       id="clipPath6894-1">
      <path
         inkscape:connector-curvature="0"
         id="path6896-2"
         d="M 99.88867,-2.3837657e-4 A 95.889392,95.889392 0 0 0 4,95.888436 95.889392,95.889392 0 0 0 99.88867,191.77906 95.889392,95.889392 0 0 0 142.59375,181.70093 l 0.12695,0.0137 40.79297,15.83204 c 3.25479,1.26313 7.53628,3.04697 10.45508,0.27343 2.83326,-2.69222 2.16811,-5.42213 1.1875,-9.41211 l -11.34766,-46.16797 a 95.889392,95.889392 0 0 1 -0.002,0.002 v -0.008 l 0.002,0.006 A 95.889392,95.889392 0 0 0 195.7793,95.888466 95.889392,95.889392 0 0 0 99.88867,-2.0837657e-4 Z"
         style="display:inline;opacity:1;fill:#00a000;fill-opacity:1;fill-rule:evenodd;stroke:none;stroke-width:4;stroke-linecap:round;stroke-linejoin:round;stroke-miterlimit:4;stroke-dasharray:none;stroke-dashoffset:0;stroke-opacity:1" />
    </clipPath>
    <clipPath
       clipPathUnits="userSpaceOnUse"
       id="clipPath6886-7">
      <path
         inkscape:connector-curvature="0"
         id="path6888-5"
         d="M 99.88867,-2.3837657e-4 A 95.889392,95.889392 0 0 0 4,95.888436 95.889392,95.889392 0 0 0 99.88867,191.77906 95.889392,95.889392 0 0 0 142.59375,181.70093 l 0.12695,0.0137 40.79297,15.83204 c 3.25479,1.26313 7.53628,3.04697 10.45508,0.27343 2.83326,-2.69222 2.16811,-5.42213 1.1875,-9.41211 l -11.34766,-46.16797 a 95.889392,95.889392 0 0 1 -0.002,0.002 v -0.008 l 0.002,0.006 A 95.889392,95.889392 0 0 0 195.7793,95.888466 95.889392,95.889392 0 0 0 99.88867,-2.0837657e-4 Z"
         style="display:inline;opacity:1;fill:#00a000;fill-opacity:1;fill-rule:evenodd;stroke:none;stroke-width:4;stroke-linecap:round;stroke-linejoin:round;stroke-miterlimit:4;stroke-dasharray:none;stroke-dashoffset:0;stroke-opacity:1" />
    </clipPath>
    <clipPath
       clipPathUnits="userSpaceOnUse"
       id="clipPath6882-4">
      <path
         inkscape:connector-curvature="0"
         id="path6884-7"
         d="M 99.88867,-2.3837657e-4 A 95.889392,95.889392 0 0 0 4,95.888436 95.889392,95.889392 0 0 0 99.88867,191.77906 95.889392,95.889392 0 0 0 142.59375,181.70093 l 0.12695,0.0137 40.79297,15.83204 c 3.25479,1.26313 7.53628,3.04697 10.45508,0.27343 2.83326,-2.69222 2.16811,-5.42213 1.1875,-9.41211 l -11.34766,-46.16797 a 95.889392,95.889392 0 0 1 -0.002,0.002 v -0.008 l 0.002,0.006 A 95.889392,95.889392 0 0 0 195.7793,95.888466 95.889392,95.889392 0 0 0 99.88867,-2.0837657e-4 Z"
         style="display:inline;opacity:1;fill:#00a000;fill-opacity:1;fill-rule:evenodd;stroke:none;stroke-width:4;stroke-linecap:round;stroke-linejoin:round;stroke-miterlimit:4;stroke-dasharray:none;stroke-dashoffset:0;stroke-opacity:1" />
    </clipPath>
    <clipPath
       clipPathUnits="userSpaceOnUse"
       id="clipPath6890-4">
      <path
         inkscape:connector-curvature="0"
         id="path6892-8"
         d="M 99.88867,-2.3837657e-4 A 95.889392,95.889392 0 0 0 4,95.888436 95.889392,95.889392 0 0 0 99.88867,191.77906 95.889392,95.889392 0 0 0 142.59375,181.70093 l 0.12695,0.0137 40.79297,15.83204 c 3.25479,1.26313 7.53628,3.04697 10.45508,0.27343 2.83326,-2.69222 2.16811,-5.42213 1.1875,-9.41211 l -11.34766,-46.16797 a 95.889392,95.889392 0 0 1 -0.002,0.002 v -0.008 l 0.002,0.006 A 95.889392,95.889392 0 0 0 195.7793,95.888466 95.889392,95.889392 0 0 0 99.88867,-2.0837657e-4 Z"
         style="display:inline;opacity:1;fill:#00a000;fill-opacity:1;fill-rule:evenodd;stroke:none;stroke-width:4;stroke-linecap:round;stroke-linejoin:round;stroke-miterlimit:4;stroke-dasharray:none;stroke-dashoffset:0;stroke-opacity:1" />
    </clipPath>
  </defs>
  <sodipodi:namedview
     id="base"
     pagecolor="#ffffff"
     bordercolor="#666666"
     borderopacity="1.0"
     inkscape:pageopacity="0"
     inkscape:pageshadow="2"
     inkscape:zoom="3.959798"
     inkscape:cx="-19.000081"
     inkscape:cy="39.577553"
     inkscape:document-units="mm"
     inkscape:current-layer="g14606"
     showgrid="false"
     fit-margin-top="0.5"
     fit-margin-left="0.87888"
     fit-margin-right="0.87888"
     fit-margin-bottom="0.5"
     inkscape:window-width="1916"
     inkscape:window-height="1561"
     inkscape:window-x="3840"
     inkscape:window-y="18"
     inkscape:window-maximized="0"
     showguides="true"
     inkscape:guide-bbox="true"
     units="mm"
     inkscape:pagecheckerboard="true">
    <sodipodi:guide
       position="-11.854979,103.32866"
       orientation="0,1"
       id="guide949"
       inkscape:locked="false" />
  </sodipodi:namedview>
  <metadata
     id="metadata14747">
    <rdf:RDF>
      <cc:Work
         rdf:about="">
        <dc:format>image/svg+xml</dc:format>
        <dc:type
           rdf:resource="http://purl.org/dc/dcmitype/StillImage" />
        <dc:title></dc:title>
      </cc:Work>
    </rdf:RDF>
  </metadata>
  <g
     inkscape:label="Layer 1"
     inkscape:groupmode="layer"
     id="layer1"
     transform="translate(-157.69546,-207.72366)">
    <g
       style="display:inline"
       id="g14606"
       transform="matrix(0.28222223,0,0,0.28222223,-479.00124,-301.93764)">
      <path
         inkscape:connector-curvature="0"
         id="path982"
         d="m 2294.3053,1807.6581 a 35.179682,35.179682 0 0 0 -35.1793,35.1795 35.179682,35.179682 0 0 0 35.1793,35.1801 35.179682,35.179682 0 0 0 15.6671,-3.6974 l 0.047,0.016 14.9657,5.8081 c 1.1941,0.4634 2.765,1.1176 3.8357,0.1008 1.0396,-0.9878 0.7952,-1.9892 0.4353,-3.453 l -4.1628,-16.9381 a 35.179682,35.179682 0 0 0 4.3919,-17.0051 35.179682,35.179682 0 0 0 -35.18,-35.1796 z m -18.0955,26.9906 a 4.2326574,4.2326574 0 0 1 4.2322,4.2329 4.2326574,4.2326574 0 0 1 -4.2322,4.232 4.2326574,4.2326574 0 0 1 -4.2329,-4.232 4.2326574,4.2326574 0 0 1 4.2329,-4.2329 z m 18.5316,0 a 4.2326574,4.2326574 0 0 1 4.2327,4.2329 4.2326574,4.2326574 0 0 1 -4.2327,4.232 4.2326574,4.2326574 0 0 1 -4.2323,-4.232 4.2326574,4.2326574 0 0 1 4.2323,-4.2329 z m 18.6074,0 a 4.2326574,4.2326574 0 0 1 4.2327,4.2329 4.2326574,4.2326574 0 0 1 -4.2327,4.232 4.2326574,4.2326574 0 0 1 -4.2329,-4.232 4.2326574,4.2326574 0 0 1 4.2329,-4.2329 z m -40.9506,11.1272 c 3.1862,0 5.7692,3.0658 5.7692,6.8468 0.2382,13.8535 -6.2709,-0.4619 -10.9352,-0.3413 -0.1706,-4.5493 3.3077,-6.5055 5.166,-6.5055 z m 44.7609,0 c 1.8583,0 5.3366,1.9562 5.166,6.5055 -4.6643,-0.1203 -11.1734,14.1948 -10.9352,0.3413 0,-3.781 2.583,-6.8468 5.7692,-6.8468 z m -22.3942,1.0655 c 1.1897,0.018 2.3941,0.1717 3.4912,0.6327 1.0971,0.4611 2.0838,1.2544 2.6152,2.3191 0.3821,0.7655 0.5149,1.6369 0.4964,2.4922 -0.018,0.8553 -0.1822,1.7007 -0.3674,2.5359 -0.1854,0.8354 -0.3936,1.6673 -0.5026,2.5159 -0.1089,0.8485 -0.117,1.7206 0.096,2.5493 0.3984,1.5562 1.6087,2.8803 3.1231,3.416 1.5145,0.5358 3.2879,0.267 4.5762,-0.6926 -3.7992,3.3277 -8.8442,5.1979 -13.8944,5.1504 -4.8822,-0.046 -9.7276,-1.8785 -13.418,-5.0752 1.2957,0.9292 3.0515,1.1785 4.5546,0.647 1.5032,-0.5315 2.7124,-1.8292 3.1358,-3.3664 0.2337,-0.8475 0.2386,-1.7442 0.1381,-2.6177 -0.1007,-0.8736 -0.3048,-1.731 -0.4837,-2.5918 -0.1787,-0.8609 -0.3339,-1.7326 -0.3352,-2.6118 0,-0.8794 0.1593,-1.7727 0.5772,-2.546 0.5662,-1.0466 1.578,-1.8075 2.6889,-2.2337 1.1111,-0.4262 2.319,-0.5419 3.5089,-0.5233 z"
         style="display:inline;opacity:1;fill:#ffffff;fill-opacity:1;fill-rule:evenodd;stroke:none;stroke-width:4.00000048;stroke-linecap:round;stroke-linejoin:round;stroke-miterlimit:4;stroke-dasharray:none;stroke-dashoffset:0;stroke-opacity:1" />
    </g>
  </g>
</svg>
